<svg height='300px' width='300px'  fill="#000000" xmlns="http://www.w3.org/2000/svg" xmlns:xlink="http://www.w3.org/1999/xlink" version="1.1" x="0px" y="0px" viewBox="0 0 100 100" enable-background="new 0 0 100 100" xml:space="preserve"><g><g><path d="M83.55859,74.04639c-0.34039-1.09192-0.67267-2.18634-1.00458-3.28082    c-0.82831-2.73083-1.6424-5.466-2.44415-8.20471c-1.0993-3.75525-2.17511-7.51746-3.22101-11.28796    c-1.15533-4.16498-2.27533-8.34003-3.33533-12.53033c-1.00159-3.95959-1.95532-7.93311-2.78711-11.93213    c-0.33374-1.60474-0.6474-3.21387-0.92377-4.82953c-0.89087-5.20782-1.54517-10.83722-5.95496-14.38715    c-3.35254-2.69873-7.57129-4.18506-11.87988-4.18506c-5.31201,0-10.44629,2.18457-13.73486,5.84424    c-1.35492,1.50781-2.30841,3.31329-2.87689,5.25415c-0.74359,2.53882-0.83575,5.25751-1.29083,7.86005    c-0.32104,1.83606-0.68738,3.66418-1.0769,5.48688c-0.89874,4.20544-1.91986,8.38446-2.98999,12.54926    c-1.11115,4.32434-2.28113,8.63348-3.48676,12.93243c-1.0542,3.75903-2.13635,7.51025-3.2417,11.25458    c-0.74054,2.50854-1.49109,5.01416-2.25494,7.51575c-0.19757,0.64716-0.39575,1.29413-0.59644,1.94037    c-0.14258,0.45752,0.05957,0.95166,0.48193,1.17871l5.28577,2.83685c-0.59796,2.52106-1.21912,4.99304-1.85608,7.34283    c-0.22607,0.83545-0.45996,1.69873,10.49463,6.4458c5.48584,2.37842,11.14014,3.56201,16.87061,3.56152    c9.05859-0.00049,18.30566-2.95801,27.3584-8.82812l0.12988-0.08545c0.35742-0.23828,0.52344-0.67871,0.41016-1.09375    c-0.63391-2.34033-1.255-4.81128-1.85492-7.33685l5.2973-2.84283C83.49902,74.99805,83.70117,74.50391,83.55859,74.04639z     M53.38379,32.38605V29.3335c0-0.55225-0.44727-1-1-1s-1,0.44775-1,1v3.02606c-6.48163-0.32727-10.97003-2.79919-11.32031-5.13202    C40.68408,26.51367,43.51758,24,52.56249,24c8.93165,0,12.22853,2.49902,13.042,3.28271    C65.17255,29.7066,60.29675,32.25623,53.38379,32.38605z"></path><circle cx="46.11902" cy="27.82202" r="1.49996"></circle><circle cx="59.37448" cy="27.82202" r="1.49996"></circle></g></g></svg>